<?xml version="1.0" encoding="UTF-8" standalone="no"?>
<!-- Created with Inkscape (http://www.inkscape.org/) -->

<svg
   width="163.049mm"
   height="69.331001mm"
   viewBox="0 0 163.049 69.331001"
   version="1.1"
   id="svg1"
   xml:space="preserve"
   inkscape:version="1.3.2 (091e20e, 2023-11-25, custom)"
   sodipodi:docname="logo.svg"
   xmlns:inkscape="http://www.inkscape.org/namespaces/inkscape"
   xmlns:sodipodi="http://sodipodi.sourceforge.net/DTD/sodipodi-0.dtd"
   xmlns="http://www.w3.org/2000/svg"
   xmlns:svg="http://www.w3.org/2000/svg"><sodipodi:namedview
     id="namedview1"
     pagecolor="#ffffff"
     bordercolor="#000000"
     borderopacity="0.25"
     inkscape:showpageshadow="2"
     inkscape:pageopacity="0.0"
     inkscape:pagecheckerboard="0"
     inkscape:deskcolor="#d1d1d1"
     inkscape:document-units="mm"
     inkscape:zoom="0.63118804"
     inkscape:cx="308.94122"
     inkscape:cy="130.7059"
     inkscape:window-width="1360"
     inkscape:window-height="697"
     inkscape:window-x="1272"
     inkscape:window-y="249"
     inkscape:window-maximized="1"
     inkscape:current-layer="g2" /><defs
     id="defs1"><rect
       x="69.709816"
       y="573.52167"
       width="613.12952"
       height="44.36079"
       id="rect2" /></defs><g
     inkscape:label="Camada 1"
     inkscape:groupmode="layer"
     id="layer1"><g
       id="g2"
       transform="translate(-18.217463,-98.544327)"
       style="fill:#ffffff"><path
         style="fill:#ffffff"
         d="m 87.108341,143.73656 c -16.75671,-8.03933 -15.15762,-7.17 -15.81725,-8.59893 -0.48228,-1.04476 -0.58692,-1.74314 -0.58692,-3.91727 0,-2.29305 0.0882,-2.82222 0.66146,-3.96874 0.73987,-1.47973 0.12212,-1.10713 9.12812,-5.50575 l 5.02709,-2.45528 0.0766,-2.31559 0.0766,-2.31559 -4.37611,-2.09497 c -4.23263,-2.02628 -4.3761,-2.12121 -4.3761,-2.89553 0,-0.72404 0.15805,-0.87367 1.65364,-1.56545 0.90951,-0.4207 5.8109,-2.7436 10.89199,-5.16201 5.08109,-2.41842 9.448404,-4.397123 9.705134,-4.397123 0.25673,0 1.993075,0.72685 3.858535,1.615213 5.15889,2.45675 13.15508,6.25347 15.89331,7.54639 2.29695,1.08457 2.44739,1.20507 2.44739,1.96021 0,0.75617 -0.15532,0.87968 -2.57968,2.0513 l -2.57969,1.24669 -0.0773,1.4552 c -0.0905,1.70221 -0.67586,1.26939 5.88186,4.34892 2.31935,1.08918 4.31636,2.15785 4.43779,2.37484 0.12143,0.21698 0.18831,2.57314 0.14862,5.2359 l -0.0722,4.84137 -1.91196,0.92605 c -1.05158,0.50932 -1.91398,0.98557 -1.91645,1.05833 -0.002,0.0728 1.15556,0.55887 2.57341,1.08025 2.45222,0.90175 2.57791,0.98546 2.57791,1.7171 0,0.77928 -0.0176,0.79395 -3.30729,2.76301 -0.31556,0.18887 0.0775,0.70142 1.91823,2.50158 1.57039,1.53575 2.3151,2.45792 2.3151,2.86679 0,0.74269 -2.05679,2.82977 -2.78813,2.8292 -0.29629,-2.3e-4 -1.51578,-0.98181 -2.84076,-2.28655 -1.27689,-1.25739 -2.36542,-2.23947 -2.41897,-2.18241 -0.0536,0.0571 -0.3331,0.52046 -0.62125,1.02978 -1.55647,2.75125 -1.48003,2.66497 -2.29257,2.58748 -0.74487,-0.071 -0.83497,-0.23454 -2.30073,-4.17498 -0.83902,-2.25557 -1.56351,-4.19569 -1.60998,-4.31137 -0.0465,-0.11567 -4.52157,1.93815 -9.94466,4.56407 -5.423109,2.62591 -9.945699,4.76245 -10.050219,4.74786 -0.10451,-0.0146 -3.16659,-1.45459 -6.80461,-3.19999 z m 5.95094,-2.92505 -0.002,-3.24115 -9.58897,-4.55489 c -5.27392,-2.50519 -9.76246,-4.58879 -9.97451,-4.63021 -0.53414,-0.10433 -1.12694,2.26041 -0.9097,3.62885 0.31669,1.99484 0.86504,2.97102 1.91108,3.40215 0.53442,0.22026 4.8412,2.24873 9.57063,4.50771 4.72943,2.25897 8.68826,4.11205 8.7974,4.11796 0.10914,0.006 0.19745,-1.44779 0.19625,-3.23042 z m -10.71344,-2.58454 c -7.35349,-3.51963 -7.67292,-3.70337 -7.67292,-4.41352 0,-0.70346 0.0591,-0.73969 1.16621,-0.71508 l 1.16622,0.0259 -1.24865,-0.63458 c -1.07817,-0.54794 -1.23739,-0.7321 -1.16621,-1.34884 0.0593,-0.51381 0.25392,-0.73856 0.69349,-0.80087 0.53957,-0.0765 14.62936,6.40265 15.60804,7.17729 0.56743,0.44912 0.27499,1.59863 -0.44981,1.76806 l -0.63487,0.1484 0.70102,0.31941 c 1.12146,0.51097 0.86491,2.28617 -0.31281,2.16458 -0.0972,-0.01 -3.62961,-1.67089 -7.84971,-3.69077 z m 15.7427,4.50277 c 1.382454,-0.71282 2.420299,-1.30209 2.306319,-1.30948 -0.11398,-0.007 -0.794635,0.28422 -1.512565,0.64802 -1.503454,0.76186 -1.927404,0.81144 -2.370714,0.27728 -0.65013,-0.78336 -0.0159,-1.3492 3.419044,-3.05045 1.887035,-0.9346 3.388125,-1.74212 3.335745,-1.79449 -0.0524,-0.0524 -1.29617,0.50744 -2.764,1.24403 -1.467835,0.73659 -2.960589,1.33926 -3.317229,1.33926 -0.87734,0 -1.18675,-0.95057 -0.51336,-1.57712 0.2699,-0.25113 3.152844,-1.73207 6.406549,-3.29099 6.25847,-2.99857 7.31335,-3.28864 7.31335,-2.01106 0,0.57754 -0.40281,0.86988 -3.175,2.30429 -1.74625,0.90356 -3.08333,1.6477 -2.97128,1.65365 0.11205,0.006 1.2841,-0.53179 2.60456,-1.19496 1.32045,-0.66317 2.65753,-1.16919 2.97127,-1.12448 0.66163,0.0943 0.91569,1.09339 0.42759,1.68152 -0.21746,0.26203 0.1138,0.20196 1.06401,-0.19293 0.75887,-0.31537 1.442,-0.73555 1.51805,-0.93374 0.0761,-0.19818 -0.18306,-1.24135 -0.57579,-2.31815 -1.32669,-3.63755 -0.77293,-3.93589 3.96609,-2.13678 1.74148,0.66113 3.31341,1.20233 3.49317,1.20265 0.17976,3.3e-4 1.34062,-0.50219 2.57969,-1.1167 l 2.25285,-1.1173 v -3.24832 c 0,-1.78658 -0.0364,-3.24832 -0.081,-3.24832 -0.0445,0 -6.68226,3.18986 -14.75053,7.08857 l -14.669569,7.08859 -0.0743,3.23016 c -0.0573,2.49316 0.003,3.2271 0.26458,3.21673 0.18638,-0.007 1.46997,-0.59666 2.85242,-1.30948 z m 12.695889,-15.06895 c 6.61893,-3.22794 12.0836,-5.91815 12.14371,-5.97827 0.0939,-0.0939 -6.45774,-3.29444 -6.74391,-3.29444 -0.21958,0 -0.0801,0.97025 0.28523,1.98438 0.20971,0.58208 0.38651,1.74294 0.3929,2.57969 l 0.0116,1.52135 h -1.7198 -1.71979 v -1.55423 c 0,-0.85483 0.1786,-2.06043 0.39688,-2.6791 0.56663,-1.60602 0.50778,-2.53815 -0.19116,-3.02771 -0.32343,-0.22653 -0.68061,-0.41188 -0.79375,-0.41188 -0.11315,0 -0.20572,1.24102 -0.20572,2.75783 0,3.24653 -0.18793,3.5843 -3.02156,5.43048 -6.55418,4.27021 -16.861259,3.73938 -22.559199,-1.16182 -0.60874,-0.52362 -1.14734,-1.21746 -1.19691,-1.54186 -0.0496,-0.32441 -0.22266,-0.56455 -0.38468,-0.53365 -0.16201,0.0309 -2.54809,1.17551 -5.30239,2.54358 l -5.00783,2.48738 9.40972,4.4917 9.40972,4.49171 2.38125,-1.11809 c 1.30969,-0.61495 7.796749,-3.75913 14.415679,-6.98705 z m -8.04812,-2.15406 c 2.03507,-0.3755 4.32854,-1.34973 6.25134,-2.65549 l 1.53632,-1.04329 v -3.03285 c 0,-1.66807 -0.0425,-3.03285 -0.0944,-3.03285 -0.0519,0 -2.44092,1.13109 -5.30887,2.51354 -2.86796,1.38245 -5.552145,2.51354 -5.964845,2.51354 -0.4127,0 -3.098754,-1.13109 -5.968994,-2.51354 -2.87025,-1.38245 -5.26328,-2.51354 -5.31785,-2.51354 -0.0546,0 -0.0992,1.35197 -0.0992,3.00437 v 3.00438 l 1.52135,1.06042 c 2.96936,2.06974 5.75228,2.92817 9.608704,2.96396 1.246585,0.0116 2.972995,-0.10932 3.836465,-0.26865 z m 6.20848,-11.48442 9.07878,-4.35381 -2.49303,-1.16728 c -1.37117,-0.642 -5.6175,-2.66032 -9.43629,-4.48515 l -6.943265,-3.31787 -9.262254,4.41317 c -5.09423,2.42725 -9.26234,4.48292 -9.26247,4.56816 -4.5e-4,0.31799 18.405374,8.95474 18.814034,8.8283 0.23414,-0.0725 4.511165,-2.09093 9.504495,-4.48552 z"
         id="path2" /><text
         xml:space="preserve"
         transform="matrix(1.8440773,0,0,2.0661583,-110.77915,-1033.1771)"
         id="text2"
         style="font-style:normal;font-variant:normal;font-weight:normal;font-stretch:normal;font-size:9.33333px;line-height:1;font-family:'Arial Unicode MS';-inkscape-font-specification:'Arial Unicode MS';white-space:pre;shape-inside:url(#rect2);display:inline;fill:#ffffff;fill-opacity:1;stroke:#ffffff;stroke-width:0.884409;stroke-opacity:1"><tspan
           x="69.708984"
           y="580.76563"
           id="tspan2">MUNDO EM LIVROS</tspan></text></g></g></svg>
